<?xml version="1.0" encoding="iso-8859-1"?>
<!-- Uploaded to: SVG Repo, www.svgrepo.com, Generator: SVG Repo Mixer Tools -->
<svg fill="#000000" height="800px" width="800px" version="1.1" id="Layer_1" xmlns="http://www.w3.org/2000/svg" xmlns:xlink="http://www.w3.org/1999/xlink" 
	 viewBox="0 0 512 512" xml:space="preserve">
<g>
	<g>
		<path d="M435.2,38.4c-11.563,0-22.485,7.006-32.316,19.208L272.333,166.4H25.6C11.46,166.4,0,177.86,0,192v102.4
			C0,308.54,11.46,320,25.6,320h60.988l69.717,139.443c3.038,6.076,8.363,10.692,14.805,12.843c2.628,0.879,5.359,1.314,8.09,1.314
			c3.934,0,7.859-0.913,11.452-2.705l51.2-25.6c11.913-5.956,17.263-20.045,12.322-32.401L217.011,320h55.322l130.551,108.792
			C412.715,440.994,423.637,448,435.2,448c42.419,0,76.8-91.691,76.8-204.8S477.619,38.4,435.2,38.4z M375.774,372.873L281.6,294.4
			H179.2l51.2,128L179.2,448l-76.791-153.6H25.6V192h256l94.174-78.473C364.919,148.847,358.4,193.98,358.4,243.2
			S364.919,337.553,375.774,372.873z M384,243.2c0-13.431,0.529-26.061,1.408-38.05L435.2,217.6v51.2l-49.792,12.45
			C384.529,269.261,384,256.631,384,243.2z M435.2,422.4c-11.861,0-37.342-40.107-47.181-115.422l53.385-13.346
			C452.804,290.79,460.8,280.55,460.8,268.8v-51.2c0-11.75-7.996-21.99-19.388-24.832l-53.385-13.346
			C397.858,104.107,423.339,64,435.2,64c14.857,0,51.2,62.797,51.2,179.2S450.057,422.4,435.2,422.4z"/>
	</g>
</g>
</svg>